<svg version="1.1" id="Layer_1" xmlns="http://www.w3.org/2000/svg" xmlns:xlink="http://www.w3.org/1999/xlink" x="0px" y="0px"
	 width="100%" viewBox="0 0 545 432" enable-background="new 0 0 545 432" xml:space="preserve">
<path fill="#FEFEFE" opacity="1.000000" stroke="none" 
	d="
M341.000000,433.000000 
	C227.333359,433.000000 114.166718,433.000000 1.000061,433.000000 
	C1.000041,289.000061 1.000041,145.000122 1.000020,1.000138 
	C182.666565,1.000092 364.333130,1.000092 545.999756,1.000046 
	C545.999878,144.999863 545.999878,288.999725 545.999939,432.999786 
	C477.833344,433.000000 409.666656,433.000000 341.000000,433.000000 
M232.307495,74.134819 
	C230.807327,75.688225 229.307159,77.241631 227.205841,79.004013 
	C226.709167,79.665154 226.212479,80.326294 225.387146,81.089500 
	C225.175125,81.210358 225.038025,81.388763 224.315567,81.867683 
	C216.122253,92.734604 207.928940,103.601524 199.196365,114.925232 
	C193.463547,127.055527 187.730728,139.185822 181.106384,151.221542 
	C169.983414,150.488449 158.870361,149.423264 147.735428,149.089981 
	C123.005264,148.349777 98.455261,149.801392 74.894653,158.237335 
	C38.258743,171.354935 22.963058,197.857635 27.467903,232.328415 
	C31.592197,263.887268 47.241268,289.538391 71.192123,310.129272 
	C114.038498,346.964935 164.327896,368.986053 218.726532,381.705292 
	C243.077225,387.398865 268.151825,390.002808 292.912170,393.918640 
	C294.141937,394.113098 295.508148,393.444702 296.810822,393.178070 
	C296.817291,392.858459 296.823761,392.538818 296.830231,392.219208 
	C294.889832,391.418854 292.949402,390.618530 290.995148,389.164124 
	C290.591125,388.593048 290.187103,388.022003 289.783081,387.450928 
	C289.513306,388.002808 289.243500,388.554718 288.409241,389.145447 
	C287.901154,388.921692 287.393066,388.697937 287.023132,387.695587 
	C287.963989,383.890045 291.464661,384.905396 294.157043,384.043579 
	C294.157043,384.043579 294.317596,384.175598 294.167114,385.048126 
	C295.550629,388.191925 297.313232,387.370911 299.965698,385.681183 
	C305.962708,386.963959 311.916565,388.517395 317.964386,389.481232 
	C340.569427,393.083771 362.969238,392.405090 385.680115,385.644287 
	C387.116974,385.069244 388.553802,384.494232 390.742310,383.905884 
	C394.686493,382.451660 398.630707,380.997437 402.574921,379.543213 
	C402.430267,379.122986 402.285645,378.702759 402.140991,378.282532 
	C398.099030,378.546509 394.057037,378.810486 389.167175,378.915131 
	C387.444855,378.934692 385.722504,378.954285 383.529449,378.712250 
	C382.693054,378.820099 381.856689,378.927948 380.189026,378.985504 
	C370.709625,377.478638 361.168823,376.279022 351.763702,374.400360 
	C332.666931,370.585876 315.171082,362.636871 297.997223,352.305023 
	C296.366913,351.483276 294.736603,350.661530 293.047028,349.934875 
	C293.047028,349.934875 293.151794,349.895111 292.974762,349.243622 
	C282.948364,340.163940 272.921997,331.084229 262.697205,321.368042 
	C258.433441,315.632416 253.455460,310.287415 250.059128,304.077393 
	C243.599106,292.265442 238.043320,279.959015 232.100082,267.962128 
	C232.100082,267.962128 232.179474,267.893555 232.167358,267.086395 
	C226.185944,245.613312 223.054398,223.832214 226.187302,201.581009 
	C227.110703,195.022598 229.394699,188.655762 231.814240,182.426422 
	C233.960785,182.679474 236.112411,182.895660 238.253128,183.191010 
	C287.866699,190.035538 335.227783,204.683365 380.773315,225.186295 
	C396.562378,232.293945 411.667267,240.921432 428.519836,249.593231 
	C422.307770,243.801361 417.266144,238.694275 411.808105,234.079727 
	C382.563812,209.354935 349.038666,192.141861 313.049072,179.906738 
	C291.703766,172.650116 269.689087,167.362503 247.991409,160.335205 
	C248.105637,159.366959 248.353287,158.392151 248.306137,157.431824 
	C248.209656,155.467178 247.954834,153.510300 247.765213,151.550232 
	C246.195999,152.297699 244.668869,153.169907 243.033600,153.721573 
	C242.497421,153.902435 241.680557,153.251328 240.965881,152.332458 
	C241.000336,151.901566 241.034790,151.470688 241.664566,150.688721 
	C247.534515,141.535629 253.404465,132.382538 259.008850,123.175125 
	C259.008850,123.175125 259.264832,123.264511 259.854706,122.991806 
	C269.480865,113.992271 279.107025,104.992737 289.040894,95.872765 
	C289.040894,95.872765 289.189880,95.577827 289.889496,95.366905 
	C295.962463,91.603897 302.035400,87.840889 308.017548,84.035736 
	C308.017548,84.035736 308.068604,84.121872 308.815460,84.078568 
	C315.782715,81.373840 322.618927,78.246765 329.739807,76.037064 
	C361.609528,66.147408 393.820282,66.968613 425.795441,74.917793 
	C437.546204,77.839088 448.617249,83.494301 460.629944,88.207954 
	C465.207794,91.075874 470.182159,93.470024 474.285950,96.904404 
	C484.771698,105.679779 494.869568,114.918671 505.374969,124.588585 
	C507.468414,127.256081 509.561890,129.923584 511.655334,132.591080 
	C512.023621,132.400665 512.391907,132.210251 512.760193,132.019821 
	C511.220123,127.898819 509.680054,123.777809 508.082367,118.924957 
	C503.522400,106.898056 497.608032,95.653450 488.993347,85.969971 
	C488.993347,85.969971 489.039368,85.978287 488.838379,85.327423 
	C479.315186,73.084328 467.812897,63.077866 454.187134,54.539837 
	C446.788391,50.723209 439.389648,46.906578 431.515747,42.992611 
	C431.515747,42.992611 431.043182,42.883591 430.740295,42.241425 
	C426.944824,40.666340 423.220978,38.882427 419.341583,37.552063 
	C401.883789,31.565239 383.927734,27.874649 365.519531,26.575279 
	C345.515808,25.163288 325.784607,26.623829 306.045532,32.808029 
	C305.701294,32.904869 305.357086,33.001713 304.237305,33.050537 
	C299.768768,34.603939 295.300262,36.157341 290.665283,37.677643 
	C290.665283,37.677643 290.603546,37.973423 289.773315,38.179157 
	C289.528625,38.325447 289.283905,38.471733 288.356537,38.585255 
	C284.844330,40.187092 281.332153,41.788925 277.105591,43.649006 
	C275.504791,44.402252 273.803558,44.996670 272.319641,45.934822 
	C263.464081,51.533585 254.658661,57.211655 245.976791,62.962692 
	C245.976791,62.962692 245.864899,62.831917 245.441833,63.017254 
	C245.151001,63.169411 244.961227,63.403511 244.212616,63.785488 
	C243.477478,64.531662 242.742340,65.277832 241.369690,66.218262 
	C238.898178,68.463112 236.426682,70.707962 233.448212,73.072235 
	C233.274551,73.358246 233.100891,73.644257 232.307495,74.134819 
M467.899323,310.966644 
	C468.298462,311.303223 468.697571,311.639801 469.246399,312.623810 
	C478.099854,323.164124 492.943817,325.723480 504.720734,318.740295 
	C516.340027,311.850555 521.103882,297.468750 515.731079,284.348267 
	C509.088470,267.269867 489.350433,263.447479 477.178558,270.677429 
	C471.663239,273.772186 467.143829,277.769196 464.869171,284.280945 
	C464.869171,284.280945 464.887848,284.637024 464.352478,285.245178 
	C464.341949,291.488647 464.331390,297.732147 464.293121,304.413452 
	C464.387665,304.714386 464.581848,304.922241 464.928955,305.745575 
	C465.869049,307.315552 466.809174,308.885529 467.899323,310.966644 
z"/>
<path fill="#76539F" opacity="1.000000" stroke="none" 
	d="
M431.043182,42.883591 
	C431.043182,42.883591 431.515747,42.992611 431.797882,43.391724 
	C435.097778,45.901123 437.987885,48.232861 441.166168,50.064606 
	C444.982178,52.263863 449.043640,54.037155 453.270630,56.190506 
	C454.459747,57.306805 455.317200,58.298073 456.304810,59.135895 
	C460.506866,62.700745 464.623169,66.386040 469.026825,69.685631 
	C471.204041,71.316994 474.650391,71.596748 473.599518,75.699860 
	C473.510193,76.048630 475.188049,77.428284 475.831482,77.295418 
	C481.199890,76.186859 480.860626,80.286636 481.712708,83.406960 
	C482.176514,85.105347 482.855377,86.745010 483.551575,88.738510 
	C485.607208,87.704590 487.323273,86.841438 489.039368,85.978287 
	C489.039368,85.978287 488.993347,85.969971 488.998871,86.396729 
	C488.686737,90.758209 488.977203,94.444237 492.819397,96.807541 
	C496.354767,98.982117 499.447296,108.091621 498.047028,112.691978 
	C497.204834,111.390373 496.730316,109.674545 495.698242,109.217285 
	C487.375885,105.530106 483.851593,95.959877 475.048218,92.776703 
	C469.904938,90.916962 465.722656,86.762680 459.959900,85.662308 
	C453.754333,82.035812 447.618683,78.746857 441.460236,75.501305 
	C440.788696,75.147415 439.998566,74.967529 439.241028,74.836510 
	C435.091736,74.118912 430.920990,73.517937 426.784363,72.735542 
	C416.913544,70.868591 407.104767,68.602470 397.176270,67.140800 
	C392.050995,66.386261 386.721130,66.899445 381.488098,67.023979 
	C370.445068,67.286774 359.404114,67.647797 348.364899,68.041008 
	C347.280518,68.079636 346.200653,68.581238 345.141571,68.936142 
	C341.150391,70.273636 337.207825,71.772079 333.174103,72.963081 
	C327.244995,74.713715 321.097656,75.847488 315.355133,78.055252 
	C312.561707,79.129196 310.475159,82.041672 308.068604,84.121872 
	C308.068604,84.121872 308.017548,84.035736 307.632416,84.026169 
	C300.850677,82.910027 297.199066,88.306061 292.127563,90.311913 
	C289.372498,91.401573 288.565918,92.924911 289.189880,95.577827 
	C289.189880,95.577827 289.040894,95.872765 288.506348,95.932106 
	C283.950958,98.169334 279.359100,99.717003 276.067230,102.699516 
	C272.665558,105.781494 268.603180,108.274147 266.171692,112.633530 
	C264.697937,115.275848 261.456848,116.932434 258.758423,119.134460 
	C258.256958,119.697212 258.006775,120.157364 257.756592,120.617508 
	C258.171478,120.742432 258.586334,120.867355 259.011383,121.373917 
	C259.102631,122.258553 259.183746,122.761528 259.264832,123.264511 
	C259.264832,123.264511 259.008850,123.175125 258.732452,123.126312 
	C253.850006,123.696480 250.225449,125.316292 249.544388,130.697189 
	C249.351242,132.223175 248.144638,133.618057 247.416000,135.079636 
	C245.120804,139.683502 242.791565,144.271469 240.597244,148.923004 
	C240.353607,149.439453 240.892990,150.325272 241.069244,151.039795 
	C241.034790,151.470688 241.000336,151.901566 240.813538,152.702820 
	C240.661194,153.073196 240.325317,153.145447 239.928909,153.107056 
	C237.418365,153.808487 235.304245,154.548294 234.572937,154.804214 
	C233.488129,160.163315 232.938339,164.361099 231.759460,168.374084 
	C229.722534,175.307922 225.626877,182.066574 225.375336,189.006744 
	C224.835464,203.903351 221.682404,218.739349 223.944260,233.751419 
	C225.161133,241.827866 225.334702,250.077774 226.844406,258.086273 
	C227.500549,261.566925 230.334595,264.636993 232.179474,267.893555 
	C232.179474,267.893555 232.100082,267.962128 232.067383,268.319855 
	C230.388657,275.482788 233.956985,280.739197 236.987167,286.279144 
	C238.740540,289.484711 239.703079,293.124481 241.001389,296.576385 
	C241.384247,297.594299 241.415894,299.275421 242.086975,299.572845 
	C250.080902,303.115295 250.725174,312.133301 255.625793,318.011749 
	C257.355530,320.086578 257.902740,322.275116 261.007843,322.251831 
	C261.004059,322.673615 261.003174,322.842316 260.803955,323.117065 
	C260.514343,323.588257 260.423004,323.953400 260.331665,324.318542 
	C260.556061,324.205566 260.780487,324.092560 261.271790,324.200989 
	C263.369324,326.940063 264.901886,329.767731 267.110992,331.891693 
	C269.514435,334.202515 272.649567,335.730438 275.280243,337.831818 
	C279.341675,341.076172 283.121552,344.683624 287.279022,347.791687 
	C288.871033,348.981842 291.173218,349.222046 293.151794,349.895111 
	C293.151794,349.895111 293.047028,349.934875 293.051208,350.281616 
	C294.363892,351.423218 295.672424,352.218109 297.030396,353.388062 
	C297.519989,355.509857 297.960114,357.256592 298.394104,359.002350 
	C299.976562,359.189941 301.694702,359.052612 303.131256,359.623688 
	C309.186462,362.030670 315.224609,364.504242 321.136566,367.239655 
	C325.217560,369.127899 329.225861,373.494598 333.013092,373.222626 
	C341.406464,372.619751 348.140961,377.428070 356.002106,378.122711 
	C365.109741,378.927551 374.124207,380.744873 383.205414,381.919006 
	C385.606506,382.229401 386.192780,382.910339 384.510864,384.984497 
	C377.010773,385.840393 369.956909,386.715393 362.896454,387.533264 
	C355.541626,388.385223 348.194733,389.594879 340.816772,389.850372 
	C336.285767,390.007263 331.694855,388.717194 327.145050,387.988373 
	C318.803497,386.652130 310.112244,386.280548 302.256714,383.533722 
	C296.495270,381.519135 291.196167,379.188080 284.796570,379.722046 
	C280.709747,377.990479 276.837341,376.549072 272.972351,374.734741 
	C271.320343,372.574951 269.660950,370.788086 268.137878,368.946381 
	C268.182404,368.927185 268.090576,368.962799 267.644684,368.993042 
	C265.186615,367.943909 263.013763,367.017792 260.991882,365.833801 
	C255.488388,362.611053 249.841141,359.627594 245.920151,354.217804 
	C245.167252,353.179016 242.673615,353.401947 240.563461,353.081818 
	C239.868240,353.176117 239.592606,353.231415 239.222183,353.279907 
	C239.127396,353.273163 239.000092,353.131989 238.971008,352.767700 
	C235.398758,347.308502 231.882507,342.181549 225.126221,340.508423 
	C224.710449,339.123535 224.352722,338.070831 223.991974,336.650604 
	C223.988983,334.029144 223.988983,331.775177 223.988983,329.571747 
	C219.392105,331.734314 220.493652,332.262238 215.018951,325.676270 
	C214.345123,324.110352 213.836899,321.979736 212.913406,321.781281 
	C209.742355,321.099762 209.760559,318.513153 208.412628,316.491455 
	C205.574310,312.234344 201.566116,308.757263 198.033600,304.596924 
	C198.979523,301.651215 198.605423,299.528107 196.310974,297.682770 
	C195.346024,296.906708 194.192398,295.345306 194.361298,294.351013 
	C195.218460,289.304565 191.051865,286.233795 189.841202,282.001862 
	C188.316025,276.670654 185.645020,271.676361 183.936264,266.385590 
	C182.591644,262.222290 182.157593,257.771790 180.939880,253.558426 
	C180.015106,250.358582 177.862442,247.428513 177.365463,244.207275 
	C176.217529,236.766617 175.400162,229.236343 175.085068,221.715759 
	C174.708862,212.736496 174.637787,203.710129 175.118927,194.740891 
	C175.458527,188.409927 176.525330,182.041718 178.000275,175.865128 
	C180.438248,165.655548 183.467545,155.587173 186.257034,145.425079 
	C188.635727,145.085587 190.639954,144.799545 192.817276,144.488785 
	C188.572128,136.320633 191.586029,128.480698 197.513779,127.887054 
	C198.118988,124.913361 198.624802,122.388428 199.149323,119.867386 
	C199.417404,118.578796 199.719025,117.297188 200.322083,115.868362 
	C206.070938,112.953377 206.465607,106.153946 211.766068,102.627357 
	C215.872543,99.895164 217.349564,93.351166 224.525284,92.636635 
	C222.924500,91.389267 222.116043,90.759300 221.168427,90.020897 
	C226.311127,88.738609 224.720215,84.790359 224.975845,81.624718 
	C225.038025,81.388763 225.175125,81.210358 225.872345,81.044540 
	C226.570404,81.000992 226.783295,81.002396 227.236694,81.276260 
	C231.904251,82.929108 232.016663,80.025459 232.109406,76.777328 
	C232.416977,76.291252 232.674728,76.103096 233.357071,75.993973 
	C234.811661,74.994354 235.901245,73.997322 237.242493,72.998817 
	C237.661896,72.994774 237.829651,72.992203 238.193634,73.228302 
	C241.460205,71.124298 246.442245,70.501831 246.002350,64.640770 
	C245.954300,63.796013 245.909592,63.313965 245.864899,62.831917 
	C245.864899,62.831917 245.976791,62.962692 246.240845,62.986122 
	C247.344223,63.338478 248.183517,63.667408 249.103058,64.163338 
	C249.445435,64.219154 249.707565,64.107979 249.976654,63.665001 
	C249.989380,62.890724 249.995132,62.448254 250.336853,62.001190 
	C251.438324,61.664810 252.203827,61.333019 253.280899,60.848831 
	C257.940857,56.169502 263.079926,53.291241 269.475250,52.869270 
	C270.392822,52.808723 272.024689,52.191650 272.051727,51.753536 
	C272.366302,46.652771 277.569458,47.466339 280.308411,44.850082 
	C283.415558,43.465958 286.200836,42.222691 289.381226,40.972603 
	C292.515686,40.299778 295.267639,39.680939 297.991211,38.955551 
	C301.218323,38.096050 305.081573,37.934650 305.012848,33.098557 
	C305.357086,33.001713 305.701294,32.904869 306.799225,32.879257 
	C318.354370,31.402512 329.119415,29.469368 339.970306,28.444899 
	C346.953094,27.785629 354.071808,28.262150 361.110992,28.608017 
	C365.979065,28.847208 370.832428,29.619860 375.662140,30.353178 
	C384.595490,31.709560 393.597321,32.810558 402.394470,34.797756 
	C408.045898,36.074364 413.383270,38.742702 418.859863,40.791386 
	C421.448914,41.759895 423.976990,42.981949 426.645538,43.609211 
	C427.980774,43.923077 429.569244,43.159725 431.043182,42.883591 
z"/>
<path fill="#5A5C59" opacity="1.000000" stroke="none" 
	d="
M286.884979,388.474213 
	C287.393066,388.697937 287.901154,388.921692 288.884521,389.335632 
	C289.909515,389.623291 290.459259,389.720764 291.009003,389.818207 
	C292.949402,390.618530 294.889832,391.418854 296.830231,392.219208 
	C296.823761,392.538818 296.817291,392.858459 296.810822,393.178070 
	C295.508148,393.444702 294.141937,394.113098 292.912170,393.918640 
	C268.151825,390.002808 243.077225,387.398865 218.726532,381.705292 
	C164.327896,368.986053 114.038498,346.964935 71.192123,310.129272 
	C47.241268,289.538391 31.592197,263.887268 27.467903,232.328415 
	C22.963058,197.857635 38.258743,171.354935 74.894653,158.237335 
	C98.455261,149.801392 123.005264,148.349777 147.735428,149.089981 
	C158.870361,149.423264 169.983414,150.488449 181.481354,151.618774 
	C180.232101,157.674515 178.607849,163.333023 176.597809,168.999985 
	C171.391922,170.915970 170.942169,172.520874 173.091461,180.472641 
	C173.048843,181.710068 173.008804,182.609711 172.613037,183.625885 
	C170.838776,184.144409 169.420258,184.546356 167.625671,184.922333 
	C164.966263,185.623169 162.682938,186.350006 160.227020,187.085022 
	C159.823212,187.103180 159.595581,187.137207 158.958008,187.200836 
	C156.356216,188.049942 154.167953,188.893463 151.680023,189.787872 
	C150.895462,190.165680 150.410583,190.492615 149.559784,190.868225 
	C145.802841,192.660797 142.313507,194.238495 139.036804,196.175797 
	C118.955589,208.048401 106.651268,234.486343 109.691582,257.692352 
	C112.236633,277.118164 121.894241,292.648163 134.993515,306.423279 
	C154.665237,327.109985 178.602600,341.766541 204.046112,354.752441 
	C205.188339,355.283905 206.095383,355.638092 207.217194,356.256775 
	C209.284180,357.362457 211.136429,358.203644 213.172684,359.317017 
	C214.576553,360.043243 215.796417,360.497223 217.249329,361.198181 
	C218.969833,362.011810 220.457291,362.578430 222.106262,363.393738 
	C222.830841,363.800079 223.393936,363.957733 224.111664,364.368347 
	C225.025391,364.820984 225.784485,365.020691 226.732178,365.462524 
	C227.502686,365.864777 228.084564,366.024902 228.857880,366.420868 
	C229.628387,366.810730 230.207458,366.964722 231.006256,367.398376 
	C249.778961,374.610077 268.331970,381.542145 286.884979,388.474213 
z"/>
<path fill="#5C5D5C" opacity="1.000000" stroke="none" 
	d="
M247.975372,161.189575 
	C269.689087,167.362503 291.703766,172.650116 313.049072,179.906738 
	C349.038666,192.141861 382.563812,209.354935 411.808105,234.079727 
	C417.266144,238.694275 422.307770,243.801361 428.519836,249.593231 
	C411.667267,240.921432 396.562378,232.293945 380.773315,225.186295 
	C335.227783,204.683365 287.866699,190.035538 238.253128,183.191010 
	C236.112411,182.895660 233.960785,182.679474 231.295670,181.967972 
	C230.680481,180.413269 230.238098,179.206863 230.546249,178.239548 
	C231.997696,173.683517 233.546494,169.150497 235.292770,164.700394 
	C235.979202,162.951141 237.271255,161.439560 238.689758,159.824112 
	C242.053131,160.282166 245.014252,160.735870 247.975372,161.189575 
z"/>
<path fill="#77539F" opacity="1.000000" stroke="none" 
	d="
M464.875671,305.037048 
	C464.581848,304.922241 464.387665,304.714386 464.468689,304.071716 
	C464.835388,303.528137 464.961151,303.291504 465.352173,302.962585 
	C465.460510,301.933899 465.238190,300.962677 465.013062,299.525024 
	C464.969452,294.251404 464.928650,289.444214 464.887848,284.637024 
	C464.887848,284.637024 464.869171,284.280945 465.343689,284.138184 
	C469.546539,280.329437 473.274872,276.663483 477.380157,272.991882 
	C485.027252,267.659637 492.659393,269.368988 500.180786,272.111328 
	C502.249420,272.865570 504.084503,274.573181 505.708588,276.167419 
	C508.922791,279.322571 511.915131,282.703705 514.965698,286.296509 
	C514.697388,287.030792 514.239258,287.472809 514.262939,287.887299 
	C514.457275,291.290192 515.175354,294.724609 514.892090,298.078308 
	C514.506592,302.642487 513.235413,306.777069 509.319885,310.186707 
	C506.741486,312.431976 503.618652,314.478943 501.714935,316.932190 
	C499.505280,319.779785 497.461517,320.016937 494.659546,320.003906 
	C491.997955,319.991516 489.308807,319.759552 486.681213,320.058533 
	C482.848022,320.494629 480.177612,319.470520 478.500793,316.621765 
	C475.674103,315.077362 472.847382,313.532959 470.015503,311.655975 
	C470.004242,310.879547 469.998199,310.435669 469.993896,309.638336 
	C470.392181,305.333862 466.867371,306.109406 464.875671,305.037048 
z"/>
<path fill="#766093" opacity="1.000000" stroke="none" 
	d="
M176.983612,168.991531 
	C178.607849,163.333023 180.232101,157.674515 181.927124,151.666061 
	C187.730728,139.185822 193.463547,127.055527 199.547852,115.080872 
	C199.934738,115.495155 199.970108,115.753792 200.005493,116.012421 
	C199.719025,117.297188 199.417404,118.578796 199.149323,119.867386 
	C198.624802,122.388428 198.118988,124.913361 197.513779,127.887054 
	C191.586029,128.480698 188.572128,136.320633 192.817276,144.488785 
	C190.639954,144.799545 188.635727,145.085587 186.257034,145.425079 
	C183.467545,155.587173 180.438248,165.655548 178.000275,175.865128 
	C176.525330,182.041718 175.458527,188.409927 175.118927,194.740891 
	C174.637787,203.710129 174.708862,212.736496 175.085068,221.715759 
	C175.400162,229.236343 176.217529,236.766617 177.365463,244.207275 
	C177.862442,247.428513 180.015106,250.358582 180.939880,253.558426 
	C182.157593,257.771790 182.591644,262.222290 183.936264,266.385590 
	C185.645020,271.676361 188.316025,276.670654 189.841202,282.001862 
	C191.051865,286.233795 195.218460,289.304565 194.361298,294.351013 
	C194.192398,295.345306 195.346024,296.906708 196.310974,297.682770 
	C198.605423,299.528107 198.979523,301.651215 197.954559,304.666931 
	C197.879929,305.100128 197.720505,305.238617 197.479156,305.056702 
	C196.563644,303.898193 195.889481,302.921631 195.135849,301.617188 
	C194.616821,300.512665 194.177261,299.735992 193.719513,298.732025 
	C193.588379,298.194031 193.373383,297.991699 193.040466,297.940796 
	C193.024582,297.983795 193.101486,297.933838 193.052017,297.578308 
	C191.055511,293.387421 189.108459,289.552032 187.143250,285.507538 
	C187.125092,285.298401 186.864761,284.968994 186.881897,284.681763 
	C186.601028,283.927765 186.303024,283.460938 186.002502,282.997070 
	C186.000000,283.000000 186.005875,282.995575 185.983124,282.660370 
	C185.370804,281.161987 184.781250,279.998810 184.218292,278.864258 
	C184.244888,278.892853 184.250763,278.814941 184.228012,278.436920 
	C182.905579,274.334351 181.605896,270.609802 180.272186,266.560333 
	C180.094727,265.825562 179.951294,265.415710 179.811554,264.628326 
	C178.898972,261.112946 177.982697,257.975098 177.076233,254.519623 
	C176.987640,253.791367 176.889221,253.380737 176.808716,252.668365 
	C176.609924,252.044357 176.393204,251.722092 176.262146,251.305878 
	C176.347778,251.211945 176.235718,250.983749 176.236847,250.556778 
	C175.059280,242.417892 173.880600,234.705994 172.753662,226.619644 
	C172.702408,225.501358 172.599411,224.757507 172.583313,223.745544 
	C172.508621,222.960480 172.347015,222.443512 172.230469,221.463974 
	C172.399307,213.381760 172.523087,205.762100 172.757050,197.768036 
	C172.901093,192.765518 172.934921,188.137421 172.968765,183.509338 
	C173.008804,182.609711 173.048843,181.710068 173.442886,180.372345 
	C174.859116,176.286682 175.921356,172.639099 176.983612,168.991531 
z"/>
<path fill="#F9F8F9" opacity="1.000000" stroke="none" 
	d="
M286.954041,388.084900 
	C268.331970,381.542145 249.778961,374.610077 231.298340,367.278229 
	C237.149033,365.998810 240.947098,361.703491 240.975922,356.026367 
	C241.043121,355.961090 241.178772,355.831848 241.438965,355.895752 
	C242.169617,356.209076 242.640060,356.458466 243.250153,356.976440 
	C243.927261,357.494415 244.464737,357.743805 245.198090,358.263489 
	C254.584290,364.058380 263.774597,369.583008 272.964905,375.107666 
	C276.837341,376.549072 280.709747,377.990479 284.909485,380.067566 
	C288.142487,381.807312 291.048096,382.911438 293.953705,384.015594 
	C291.464661,384.905396 287.963989,383.890045 286.954041,388.084900 
z"/>
<path fill="#786193" opacity="1.000000" stroke="none" 
	d="
M308.442017,84.100220 
	C310.475159,82.041672 312.561707,79.129196 315.355133,78.055252 
	C321.097656,75.847488 327.244995,74.713715 333.174103,72.963081 
	C337.207825,71.772079 341.150391,70.273636 345.141571,68.936142 
	C346.200653,68.581238 347.280518,68.079636 348.364899,68.041008 
	C359.404114,67.647797 370.445068,67.286774 381.488098,67.023979 
	C386.721130,66.899445 392.050995,66.386261 397.176270,67.140800 
	C407.104767,68.602470 416.913544,70.868591 426.784363,72.735542 
	C430.920990,73.517937 435.091736,74.118912 439.241028,74.836510 
	C439.998566,74.967529 440.788696,75.147415 441.460236,75.501305 
	C447.618683,78.746857 453.754333,82.035812 459.953522,85.977081 
	C460.006409,87.062187 460.002380,87.482330 459.998352,87.902466 
	C448.617249,83.494301 437.546204,77.839088 425.795441,74.917793 
	C393.820282,66.968613 361.609528,66.147408 329.739807,76.037064 
	C322.618927,78.246765 315.782715,81.373840 308.442017,84.100220 
z"/>
<path fill="#7A6597" opacity="1.000000" stroke="none" 
	d="
M460.314148,88.055206 
	C460.002380,87.482330 460.006409,87.062187 460.016815,86.327278 
	C465.722656,86.762680 469.904938,90.916962 475.048218,92.776703 
	C483.851593,95.959877 487.375885,105.530106 495.698242,109.217285 
	C496.730316,109.674545 497.204834,111.390373 498.047028,112.691978 
	C499.447296,108.091621 496.354767,98.982117 492.819397,96.807541 
	C488.977203,94.444237 488.686737,90.758209 489.018890,86.384453 
	C497.608032,95.653450 503.522400,106.898056 508.051514,119.657707 
	C507.054657,121.584366 506.088623,122.778267 505.122559,123.972160 
	C494.869568,114.918671 484.771698,105.679779 474.285950,96.904404 
	C470.182159,93.470024 465.207794,91.075874 460.314148,88.055206 
z"/>
<path fill="#786294" opacity="1.000000" stroke="none" 
	d="
M430.891724,42.562508 
	C429.569244,43.159725 427.980774,43.923077 426.645538,43.609211 
	C423.976990,42.981949 421.448914,41.759895 418.859863,40.791386 
	C413.383270,38.742702 408.045898,36.074364 402.394470,34.797756 
	C393.597321,32.810558 384.595490,31.709560 375.662140,30.353178 
	C370.832428,29.619860 365.979065,28.847208 361.110992,28.608017 
	C354.071808,28.262150 346.953094,27.785629 339.970306,28.444899 
	C329.119415,29.469368 318.354370,31.402512 307.067200,32.908852 
	C325.784607,26.623829 345.515808,25.163288 365.519531,26.575279 
	C383.927734,27.874649 401.883789,31.565239 419.341583,37.552063 
	C423.220978,38.882427 426.944824,40.666340 430.891724,42.562508 
z"/>
<path fill="#765F92" opacity="1.000000" stroke="none" 
	d="
M384.954224,384.978546 
	C386.192780,382.910339 385.606506,382.229401 383.205414,381.919006 
	C374.124207,380.744873 365.109741,378.927551 356.002106,378.122711 
	C348.140961,377.428070 341.406464,372.619751 333.013092,373.222626 
	C329.225861,373.494598 325.217560,369.127899 321.136566,367.239655 
	C315.224609,364.504242 309.186462,362.030670 303.131256,359.623688 
	C301.694702,359.052612 299.976562,359.189941 298.394104,359.002350 
	C297.960114,357.256592 297.519989,355.509857 297.398499,353.352905 
	C297.961609,352.912567 298.206116,352.882538 298.450623,352.852478 
	C315.171082,362.636871 332.666931,370.585876 351.763702,374.400360 
	C361.168823,376.279022 370.709625,377.478638 380.790466,379.256775 
	C382.261322,379.343323 383.130768,379.158569 384.000183,378.973846 
	C385.722504,378.954285 387.444855,378.934692 389.604950,379.272827 
	C390.025360,381.060089 390.008026,382.489655 389.990662,383.919189 
	C388.553802,384.494232 387.116974,385.069244 385.334167,385.481323 
	C384.988190,385.318390 384.954224,384.978546 384.954224,384.978546 
z"/>
<path fill="#745E91" opacity="1.000000" stroke="none" 
	d="
M238.287506,159.819733 
	C237.271255,161.439560 235.979202,162.951141 235.292770,164.700394 
	C233.546494,169.150497 231.997696,173.683517 230.546249,178.239548 
	C230.238098,179.206863 230.680481,180.413269 230.916138,181.855331 
	C229.394699,188.655762 227.110703,195.022598 226.187302,201.581009 
	C223.054398,223.832214 226.185944,245.613312 232.173416,267.489990 
	C230.334595,264.636993 227.500549,261.566925 226.844406,258.086273 
	C225.334702,250.077774 225.161133,241.827866 223.944260,233.751419 
	C221.682404,218.739349 224.835464,203.903351 225.375336,189.006744 
	C225.626877,182.066574 229.722534,175.307922 231.759460,168.374084 
	C232.938339,164.361099 233.488129,160.163315 234.572937,154.804214 
	C235.304245,154.548294 237.418365,153.808487 239.785767,153.435486 
	C239.455185,155.808121 238.871338,157.813934 238.287506,159.819733 
z"/>
<path fill="#766092" opacity="1.000000" stroke="none" 
	d="
M384.510864,384.984497 
	C384.954224,384.978546 384.988190,385.318390 384.995667,385.488922 
	C362.969238,392.405090 340.569427,393.083771 317.964386,389.481232 
	C311.916565,388.517395 305.962708,386.963959 299.327087,385.433472 
	C297.231506,384.849060 295.774567,384.512329 294.317596,384.175598 
	C294.317596,384.175598 294.157043,384.043579 294.055359,384.029602 
	C291.048096,382.911438 288.142487,381.807312 285.123901,380.357697 
	C291.196167,379.188080 296.495270,381.519135 302.256714,383.533722 
	C310.112244,386.280548 318.803497,386.652130 327.145050,387.988373 
	C331.694855,388.717194 336.285767,390.007263 340.816772,389.850372 
	C348.194733,389.594879 355.541626,388.385223 362.896454,387.533264 
	C369.956909,386.715393 377.010773,385.840393 384.510864,384.984497 
z"/>
<path fill="#776394" opacity="1.000000" stroke="none" 
	d="
M470.020691,311.988556 
	C472.847382,313.532959 475.674103,315.077362 478.500793,316.621765 
	C480.177612,319.470520 482.848022,320.494629 486.681213,320.058533 
	C489.308807,319.759552 491.997955,319.991516 494.659546,320.003906 
	C497.461517,320.016937 499.505280,319.779785 501.714935,316.932190 
	C503.618652,314.478943 506.741486,312.431976 509.319885,310.186707 
	C513.235413,306.777069 514.506592,302.642487 514.892090,298.078308 
	C515.175354,294.724609 514.457275,291.290192 514.262939,287.887299 
	C514.239258,287.472809 514.697388,287.030792 515.057983,286.092010 
	C515.355347,285.322357 515.588562,285.141907 515.883423,285.041107 
	C521.103882,297.468750 516.340027,311.850555 504.720734,318.740295 
	C492.943817,325.723480 478.099854,323.164124 469.402496,312.305054 
	C469.558594,311.986298 470.020691,311.988556 470.020691,311.988556 
z"/>
<path fill="#745E91" opacity="1.000000" stroke="none" 
	d="
M261.010773,321.998779 
	C257.902740,322.275116 257.355530,320.086578 255.625793,318.011749 
	C250.725174,312.133301 250.080902,303.115295 242.086975,299.572845 
	C241.415894,299.275421 241.384247,297.594299 241.001389,296.576385 
	C239.703079,293.124481 238.740540,289.484711 236.987167,286.279144 
	C233.956985,280.739197 230.388657,275.482788 232.073364,268.267761 
	C238.043320,279.959015 243.599106,292.265442 250.059128,304.077393 
	C253.455460,310.287415 258.433441,315.632416 262.482239,321.684204 
	C261.848450,321.999817 261.429626,321.999298 261.010773,321.998779 
z"/>
<path fill="#755F93" opacity="1.000000" stroke="none" 
	d="
M488.938873,85.652855 
	C487.323273,86.841438 485.607208,87.704590 483.551575,88.738510 
	C482.855377,86.745010 482.176514,85.105347 481.712708,83.406960 
	C480.860626,80.286636 481.199890,76.186859 475.831482,77.295418 
	C475.188049,77.428284 473.510193,76.048630 473.599518,75.699860 
	C474.650391,71.596748 471.204041,71.316994 469.026825,69.685631 
	C464.623169,66.386040 460.506866,62.700745 456.304810,59.135895 
	C455.317200,58.298073 454.459747,57.306805 453.391602,55.972511 
	C453.689484,55.379082 454.138153,55.199261 454.586853,55.019432 
	C467.812897,63.077866 479.315186,73.084328 488.938873,85.652855 
z"/>
<path fill="#765E8F" opacity="1.000000" stroke="none" 
	d="
M200.322083,115.868362 
	C199.970108,115.753792 199.934738,115.495155 199.817490,114.852478 
	C207.928940,103.601524 216.122253,92.734604 224.645706,81.746201 
	C224.720215,84.790359 226.311127,88.738609 221.168427,90.020897 
	C222.116043,90.759300 222.924500,91.389267 224.525284,92.636635 
	C217.349564,93.351166 215.872543,99.895164 211.766068,102.627357 
	C206.465607,106.153946 206.070938,112.953377 200.322083,115.868362 
z"/>
<path fill="#786292" opacity="1.000000" stroke="none" 
	d="
M515.807251,284.694702 
	C515.588562,285.141907 515.355347,285.322357 515.091431,285.786987 
	C511.915131,282.703705 508.922791,279.322571 505.708588,276.167419 
	C504.084503,274.573181 502.249420,272.865570 500.180786,272.111328 
	C492.659393,269.368988 485.027252,267.659637 477.513977,272.674500 
	C477.465820,271.708923 477.660797,271.055023 477.855774,270.401123 
	C489.350433,263.447479 509.088470,267.269867 515.807251,284.694702 
z"/>
<path fill="#756191" opacity="1.000000" stroke="none" 
	d="
M261.007843,322.251831 
	C261.429626,321.999298 261.848450,321.999817 262.581451,322.002441 
	C272.921997,331.084229 282.948364,340.163940 293.063293,349.569366 
	C291.173218,349.222046 288.871033,348.981842 287.279022,347.791687 
	C283.121552,344.683624 279.341675,341.076172 275.280243,337.831818 
	C272.649567,335.730438 269.514435,334.202515 267.110992,331.891693 
	C264.901886,329.767731 263.369324,326.940063 261.270935,323.958984 
	C261.003174,323.495544 261.002258,323.011047 261.002258,323.011047 
	C261.003174,322.842316 261.004059,322.673615 261.007843,322.251831 
z"/>
<path fill="#786395" opacity="1.000000" stroke="none" 
	d="
M259.009766,119.031876 
	C261.456848,116.932434 264.697937,115.275848 266.171692,112.633530 
	C268.603180,108.274147 272.665558,105.781494 276.067230,102.699516 
	C279.359100,99.717003 283.950958,98.169334 288.352509,95.992325 
	C279.107025,104.992737 269.480865,113.992271 259.559753,123.128159 
	C259.183746,122.761528 259.102631,122.258553 259.011230,121.047073 
	C259.003845,119.903015 259.006805,119.467453 259.009766,119.031876 
z"/>
<path fill="#6E5A8D" opacity="1.000000" stroke="none" 
	d="
M279.986572,44.990944 
	C277.569458,47.466339 272.366302,46.652771 272.051727,51.753536 
	C272.024689,52.191650 270.392822,52.808723 269.475250,52.869270 
	C263.079926,53.291241 257.940857,56.169502 252.946350,60.849453 
	C251.533783,61.336906 250.767349,61.671349 250.000885,62.005783 
	C249.995132,62.448254 249.989380,62.890724 249.740112,63.665203 
	C249.496628,63.997211 249.022827,63.996342 249.022827,63.996342 
	C248.183517,63.667408 247.344223,63.338478 246.170654,62.936333 
	C254.658661,57.211655 263.464081,51.533585 272.319641,45.934822 
	C273.803558,44.996670 275.504791,44.402252 277.601105,43.860413 
	C278.726593,44.378193 279.356598,44.684570 279.986572,44.990944 
z"/>
<path fill="#745E91" opacity="1.000000" stroke="none" 
	d="
M241.366913,150.864258 
	C240.892990,150.325272 240.353607,149.439453 240.597244,148.923004 
	C242.791565,144.271469 245.120804,139.683502 247.416000,135.079636 
	C248.144638,133.618057 249.351242,132.223175 249.544388,130.697189 
	C250.225449,125.316292 253.850006,123.696480 258.865234,123.153473 
	C253.404465,132.382538 247.534515,141.535629 241.366913,150.864258 
z"/>
<path fill="#F5F5F3" opacity="1.000000" stroke="none" 
	d="
M238.689758,159.824097 
	C238.871338,157.813934 239.455185,155.808121 240.182190,153.473877 
	C240.325317,153.145447 240.661194,153.073196 240.826630,153.026932 
	C241.680557,153.251328 242.497421,153.902435 243.033600,153.721573 
	C244.668869,153.169907 246.195999,152.297699 247.765213,151.550232 
	C247.954834,153.510300 248.209656,155.467178 248.306137,157.431824 
	C248.353287,158.392151 248.105637,159.366959 247.983398,160.762390 
	C245.014252,160.735870 242.053131,160.282166 238.689758,159.824097 
z"/>
<path fill="#786294" opacity="1.000000" stroke="none" 
	d="
M454.386993,54.779636 
	C454.138153,55.199261 453.689484,55.379082 453.119812,55.776897 
	C449.043640,54.037155 444.982178,52.263863 441.166168,50.064606 
	C437.987885,48.232861 435.097778,45.901123 432.035461,43.440392 
	C439.389648,46.906578 446.788391,50.723209 454.386993,54.779636 
z"/>
<path fill="#786292" opacity="1.000000" stroke="none" 
	d="
M289.539673,95.472366 
	C288.565918,92.924911 289.372498,91.401573 292.127563,90.311913 
	C297.199066,88.306061 300.850677,82.910027 307.677826,84.047241 
	C302.035400,87.840889 295.962463,91.603897 289.539673,95.472366 
z"/>
<path fill="#765F92" opacity="1.000000" stroke="none" 
	d="
M304.625061,33.074547 
	C305.081573,37.934650 301.218323,38.096050 297.991211,38.955551 
	C295.267639,39.680939 292.515686,40.299778 289.383789,40.677185 
	C289.007263,39.798401 289.023224,39.208214 289.039154,38.618023 
	C289.283905,38.471733 289.528625,38.325447 290.216827,38.026272 
	C290.660339,37.873386 290.831726,37.710739 290.831726,37.710739 
	C295.300262,36.157341 299.768768,34.603939 304.625061,33.074547 
z"/>
<path fill="#756191" opacity="1.000000" stroke="none" 
	d="
M477.517151,270.539276 
	C477.660797,271.055023 477.465820,271.708923 477.137024,272.680176 
	C473.274872,276.663483 469.546539,280.329437 465.459167,284.002289 
	C467.143829,277.769196 471.663239,273.772186 477.517151,270.539276 
z"/>
<path fill="#726289" opacity="1.000000" stroke="none" 
	d="
M390.366486,383.912537 
	C390.008026,382.489655 390.025360,381.060089 390.028900,379.352478 
	C394.057037,378.810486 398.099030,378.546509 402.140991,378.282532 
	C402.285645,378.702759 402.430267,379.122986 402.574921,379.543213 
	C398.630707,380.997437 394.686493,382.451660 390.366486,383.912537 
z"/>
<path fill="#7B748F" opacity="1.000000" stroke="none" 
	d="
M505.248779,124.280380 
	C506.088623,122.778267 507.054657,121.584366 508.080322,120.023628 
	C509.680054,123.777809 511.220123,127.898819 512.760193,132.019821 
	C512.391907,132.210251 512.023621,132.400665 511.655334,132.591080 
	C509.561890,129.923584 507.468414,127.256081 505.248779,124.280380 
z"/>
<path fill="#76648D" opacity="1.000000" stroke="none" 
	d="
M464.620178,284.941101 
	C464.928650,289.444214 464.969452,294.251404 465.007935,299.903564 
	C465.010925,301.505707 465.016235,302.262909 465.021515,303.020111 
	C464.961151,303.291504 464.835388,303.528137 464.482544,303.852814 
	C464.331390,297.732147 464.341949,291.488647 464.620178,284.941101 
z"/>
<path fill="#735A8E" opacity="1.000000" stroke="none" 
	d="
M246.005707,65.003479 
	C246.442245,70.501831 241.460205,71.124298 238.230698,72.892761 
	C239.383438,70.220360 240.695312,68.122185 242.007202,66.024002 
	C242.742340,65.277832 243.477478,64.531662 244.665817,64.020142 
	C245.414581,64.504356 245.710144,64.753922 246.005707,65.003479 
z"/>
<path fill="#786895" opacity="1.000000" stroke="none" 
	d="
M288.697845,38.601639 
	C289.023224,39.208214 289.007263,39.798401 288.988739,40.684010 
	C286.200836,42.222691 283.415558,43.465958 280.308411,44.850082 
	C279.356598,44.684570 278.726593,44.378193 277.958282,43.731293 
	C281.332153,41.788925 284.844330,40.187092 288.697845,38.601639 
z"/>
<path fill="#765E8F" opacity="1.000000" stroke="none" 
	d="
M241.688446,66.121140 
	C240.695312,68.122185 239.383438,70.220360 238.034485,72.654083 
	C237.829651,72.992203 237.661896,72.994774 236.876404,72.999191 
	C235.526855,73.031197 234.795074,73.061348 234.037445,73.055901 
	C234.011597,73.020309 233.955185,72.952812 233.955185,72.952805 
	C236.426682,70.707962 238.898178,68.463112 241.688446,66.121140 
z"/>
<path fill="#776394" opacity="1.000000" stroke="none" 
	d="
M464.902313,305.391296 
	C466.867371,306.109406 470.392181,305.333862 469.730957,309.541626 
	C468.893982,310.017395 468.321625,310.236450 467.749268,310.455505 
	C466.809174,308.885529 465.869049,307.315552 464.902313,305.391296 
z"/>
<path fill="#765E8F" opacity="1.000000" stroke="none" 
	d="
M232.992065,75.996552 
	C232.674728,76.103096 232.416977,76.291252 231.817474,76.917480 
	C230.301834,77.873550 229.187546,78.473145 228.006363,79.003624 
	C227.939484,78.934509 227.806992,78.795044 227.806992,78.795044 
	C229.307159,77.241631 230.807327,75.688225 232.656128,74.066971 
	C233.004745,73.999130 233.087097,74.062103 233.059418,74.383865 
	C233.018509,75.135933 233.005295,75.566238 232.992065,75.996552 
z"/>
<path fill="#756191" opacity="1.000000" stroke="none" 
	d="
M298.223938,352.578735 
	C298.206116,352.882538 297.961609,352.912567 297.349030,352.977814 
	C295.672424,352.218109 294.363892,351.423218 293.080841,350.234070 
	C294.736603,350.661530 296.366913,351.483276 298.223938,352.578735 
z"/>
<path fill="#F9F8F9" opacity="1.000000" stroke="none" 
	d="
M294.242371,384.611877 
	C295.774567,384.512329 297.231506,384.849060 298.931030,385.356262 
	C297.313232,387.370911 295.550629,388.191925 294.242371,384.611877 
z"/>
<path fill="#726289" opacity="1.000000" stroke="none" 
	d="
M383.764832,378.843048 
	C383.130768,379.158569 382.261322,379.343323 381.206116,379.281921 
	C381.856689,378.927948 382.693054,378.820099 383.764832,378.843048 
z"/>
<path fill="#F9F8F9" opacity="1.000000" stroke="none" 
	d="
M291.002075,389.491150 
	C290.459259,389.720764 289.909515,389.623291 289.166748,389.316223 
	C289.243500,388.554718 289.513306,388.002808 289.783081,387.450928 
	C290.187103,388.022003 290.591125,388.593048 291.002075,389.491150 
z"/>
<path fill="#76648D" opacity="1.000000" stroke="none" 
	d="
M467.824280,310.711060 
	C468.321625,310.236450 468.893982,310.017395 469.729248,309.895081 
	C469.998199,310.435669 470.004242,310.879547 470.015503,311.655975 
	C470.020691,311.988556 469.558594,311.986298 469.327637,311.981323 
	C468.697571,311.639801 468.298462,311.303223 467.824280,310.711060 
z"/>
<path fill="#765E8F" opacity="1.000000" stroke="none" 
	d="
M226.996185,81.003799 
	C226.783295,81.002396 226.570404,81.000992 226.036652,80.993515 
	C226.212479,80.326294 226.709167,79.665154 227.506409,78.899529 
	C227.806992,78.795044 227.939484,78.934509 227.959061,79.291245 
	C227.651154,80.099922 227.323669,80.551865 226.996185,81.003799 
z"/>
<path fill="#6E5A8D" opacity="1.000000" stroke="none" 
	d="
M246.002350,64.640770 
	C245.710144,64.753922 245.414581,64.504356 244.995758,63.987171 
	C244.961227,63.403511 245.151001,63.169411 245.653351,62.924583 
	C245.909592,63.313965 245.954300,63.796013 246.002350,64.640770 
z"/>
<path fill="#786895" opacity="1.000000" stroke="none" 
	d="
M290.748505,37.694191 
	C290.831726,37.710739 290.660339,37.873386 290.631958,37.923405 
	C290.603546,37.973423 290.665283,37.677643 290.748505,37.694191 
z"/>
<path fill="#765E8F" opacity="1.000000" stroke="none" 
	d="
M232.965988,73.964699 
	C233.100891,73.644257 233.274551,73.358246 233.701691,73.012527 
	C233.955185,72.952812 234.011597,73.020309 233.913712,73.253830 
	C233.617188,73.735054 233.374283,73.926643 233.087097,74.062103 
	C233.087097,74.062103 233.004745,73.999130 232.965988,73.964699 
z"/>
<path fill="#776090" opacity="1.000000" stroke="none" 
	d="
M272.972351,374.734741 
	C263.774597,369.583008 254.584290,364.058380 245.173248,357.987427 
	C244.338531,357.196716 243.724518,356.952271 243.110504,356.707825 
	C242.640060,356.458466 242.169617,356.209076 241.393433,355.653412 
	C241.087692,355.347137 241.029785,354.857208 241.014008,354.651215 
	C240.998230,354.445221 240.985229,354.031494 240.985062,353.784302 
	C240.984894,353.537109 240.983047,353.042755 240.983047,353.042786 
	C242.673615,353.401947 245.167252,353.179016 245.920151,354.217804 
	C249.841141,359.627594 255.488388,362.611053 260.991882,365.833801 
	C263.013763,367.017792 265.186615,367.943909 267.645325,368.993835 
	C268.000000,369.000000 268.001556,369.001221 268.001556,369.001221 
	C269.660950,370.788086 271.320343,372.574951 272.972351,374.734741 
z"/>
<path fill="#766093" opacity="1.000000" stroke="none" 
	d="
M197.958969,305.030090 
	C201.566116,308.757263 205.574310,312.234344 208.412628,316.491455 
	C209.760559,318.513153 209.742355,321.099762 212.913406,321.781281 
	C213.836899,321.979736 214.345123,324.110352 214.710419,325.523438 
	C213.160400,325.133636 211.943649,324.575714 210.452805,323.839539 
	C207.474854,320.067535 204.771011,316.473755 201.988541,312.563171 
	C200.892227,310.834259 199.874512,309.422211 198.816238,307.709717 
	C198.423950,306.685730 198.072235,305.962158 197.720520,305.238617 
	C197.720505,305.238617 197.879929,305.100128 197.958969,305.030090 
z"/>
<path fill="#735E90" opacity="1.000000" stroke="none" 
	d="
M210.726898,324.017792 
	C211.943649,324.575714 213.160400,325.133636 214.685669,325.844421 
	C220.493652,332.262238 219.392105,331.734314 223.988983,329.571747 
	C223.988983,331.775177 223.988983,334.029144 223.750366,336.744385 
	C223.058243,337.456940 222.604752,337.708252 221.731262,337.705658 
	C220.699341,337.381714 220.087418,337.311676 219.384796,337.241516 
	C219.448593,336.943390 219.603043,336.645386 219.774506,336.090942 
	C219.084457,335.096863 218.377396,334.359253 217.520691,333.309143 
	C215.156357,330.003632 212.941635,327.010712 210.726898,324.017792 
z"/>
<path fill="#7A6493" opacity="1.000000" stroke="none" 
	d="
M225.184250,340.840607 
	C231.882507,342.181549 235.398758,347.308502 238.642029,352.682495 
	C236.224762,351.358978 234.107391,349.756409 231.798386,347.934906 
	C230.848984,347.125916 230.091217,346.535889 229.195557,345.635193 
	C227.750565,344.102753 226.443481,342.881073 225.128723,341.486328 
	C225.121063,341.313324 225.024826,340.980591 225.063034,340.943726 
	C225.101242,340.906830 225.184250,340.840607 225.184250,340.840607 
z"/>
<path fill="#F9F8F9" opacity="1.000000" stroke="none" 
	d="
M231.990021,348.153870 
	C234.107391,349.756409 236.224762,351.358978 238.671112,353.046753 
	C239.000092,353.131989 239.127396,353.273163 239.314728,353.510986 
	C239.502075,353.748810 239.919785,354.020782 240.054718,354.218811 
	C240.428513,354.642212 240.708557,354.789001 241.029785,354.857208 
	C241.029785,354.857208 241.087692,355.347137 241.133240,355.589478 
	C241.178772,355.831848 241.043121,355.961090 240.565979,355.995270 
	C232.870758,355.843597 231.161438,354.181366 231.990021,348.153870 
z"/>
<path fill="#735A8E" opacity="1.000000" stroke="none" 
	d="
M227.236694,81.276260 
	C227.323669,80.551865 227.651154,80.099922 228.025940,79.360367 
	C229.187546,78.473145 230.301834,77.873550 231.708069,77.133804 
	C232.016663,80.025459 231.904251,82.929108 227.236694,81.276260 
z"/>
<path fill="#735A8E" opacity="1.000000" stroke="none" 
	d="
M233.059418,74.383865 
	C233.374283,73.926643 233.617188,73.735054 233.939545,73.289413 
	C234.795074,73.061348 235.526855,73.031197 236.624741,73.000671 
	C235.901245,73.997322 234.811661,74.994354 233.357071,75.993973 
	C233.005295,75.566238 233.018509,75.135933 233.059418,74.383865 
z"/>
<path fill="#7A6493" opacity="1.000000" stroke="none" 
	d="
M222.151260,337.959595 
	C222.604752,337.708252 223.058243,337.456940 223.753357,337.111877 
	C224.352722,338.070831 224.710449,339.123535 225.126221,340.508423 
	C225.184250,340.840607 225.101242,340.906830 224.800476,340.790771 
	C223.716904,339.769653 222.934082,338.864624 222.151260,337.959595 
z"/>
<path fill="#735A8E" opacity="1.000000" stroke="none" 
	d="
M250.336868,62.001190 
	C250.767349,61.671349 251.533783,61.336906 252.634766,61.001846 
	C252.203827,61.333019 251.438324,61.664810 250.336868,62.001190 
z"/>
<path fill="#745E91" opacity="1.000000" stroke="none" 
	d="
M258.758423,119.134476 
	C259.006805,119.467453 259.003845,119.903015 259.001068,120.665428 
	C258.586334,120.867355 258.171478,120.742432 257.756592,120.617508 
	C258.006775,120.157364 258.256958,119.697212 258.758423,119.134476 
z"/>
<path fill="#745E91" opacity="1.000000" stroke="none" 
	d="
M260.803955,323.117065 
	C261.002258,323.011047 261.003174,323.495544 261.004028,323.737549 
	C260.780487,324.092560 260.556061,324.205566 260.331665,324.318542 
	C260.423004,323.953400 260.514343,323.588257 260.803955,323.117065 
z"/>
<path fill="#735A8E" opacity="1.000000" stroke="none" 
	d="
M249.103058,64.163338 
	C249.022827,63.996342 249.496628,63.997211 249.733154,63.997009 
	C249.707565,64.107979 249.445435,64.219154 249.103058,64.163338 
z"/>
<path fill="#7A6493" opacity="1.000000" stroke="none" 
	d="
M239.919785,354.020782 
	C239.919785,354.020782 239.502075,353.748810 239.409515,353.517761 
	C239.592606,353.231415 239.868240,353.176117 240.563461,353.081787 
	C240.983047,353.042755 240.984894,353.537109 240.718811,353.781860 
	C240.275070,354.024689 240.097427,354.022736 239.919785,354.020782 
z"/>
<path fill="#776090" opacity="1.000000" stroke="none" 
	d="
M267.999390,368.999207 
	C268.090576,368.962799 268.182404,368.927185 268.137878,368.946381 
	C268.001556,369.001221 268.000000,369.000000 267.999390,368.999207 
z"/>
<path fill="#FEFEFE" opacity="1.000000" stroke="none" 
	d="
M221.731262,337.705658 
	C222.934082,338.864624 223.716904,339.769653 224.762268,340.827637 
	C225.024826,340.980591 225.121063,341.313324 225.090073,341.918579 
	C224.554138,346.074890 226.814850,346.171448 229.333450,345.945892 
	C230.091217,346.535889 230.848984,347.125916 231.798386,347.934906 
	C231.161438,354.181366 232.870758,355.843597 240.498779,356.060547 
	C240.947098,361.703491 237.149033,365.998810 231.078629,366.998566 
	C230.207458,366.964722 229.628387,366.810730 229.149261,366.240753 
	C229.345718,365.132599 229.442215,364.440399 229.538696,363.748230 
	C228.540314,364.238922 227.541931,364.729675 226.543549,365.220398 
	C225.784485,365.020691 225.025391,364.820984 224.096313,364.058167 
	C223.265808,363.378387 222.605286,363.261719 221.944763,363.145050 
	C220.457291,362.578430 218.969833,362.011810 217.238434,360.842163 
	C216.092117,359.275085 215.189743,358.311035 214.287384,357.347015 
	C213.854477,357.912964 213.421570,358.478882 212.988678,359.044800 
	C211.136429,358.203644 209.284180,357.362457 207.181686,355.909271 
	C205.891251,355.056580 204.851089,354.815887 203.810913,354.575195 
	C178.602600,341.766541 154.665237,327.109985 134.993515,306.423279 
	C121.894241,292.648163 112.236633,277.118164 109.691582,257.692352 
	C106.651268,234.486343 118.955589,208.048401 139.036804,196.175797 
	C142.313507,194.238495 145.802841,192.660797 149.732101,191.129868 
	C150.840118,190.807571 151.409912,190.272278 151.979706,189.737000 
	C154.167953,188.893463 156.356216,188.049942 158.858459,187.595383 
	C159.446442,188.436310 159.720428,188.888260 159.994415,189.340195 
	C160.129486,188.585739 160.264542,187.831299 160.399597,187.076843 
	C162.682938,186.350006 164.966263,185.623169 167.624802,185.348328 
	C168.261429,190.399124 169.162735,194.757004 172.646851,198.142456 
	C172.523087,205.762100 172.399307,213.381760 171.989105,221.591782 
	C171.967270,222.792664 172.231842,223.403152 172.496414,224.013657 
	C172.599411,224.757507 172.702408,225.501358 172.401306,226.727997 
	C171.998138,234.473862 171.999069,241.736938 171.860992,249.053909 
	C171.814636,249.071884 171.907318,249.035934 172.340851,249.050995 
	C173.866379,249.729263 175.051056,250.356506 176.235718,250.983749 
	C176.235718,250.983749 176.347778,251.211945 176.262024,251.604279 
	C176.381119,252.321106 176.585953,252.645615 176.790802,252.970108 
	C176.889221,253.380737 176.987640,253.791367 177.047089,254.907639 
	C176.332108,259.223816 175.770111,262.800385 179.807861,265.005859 
	C179.951294,265.415710 180.094727,265.825562 179.897644,266.713745 
	C176.693787,269.552979 175.862305,275.966278 178.253433,277.267151 
	C179.103973,276.596191 179.952423,275.921783 180.549576,275.447113 
	C181.938248,276.710724 183.094498,277.762848 184.250763,278.814941 
	C184.250763,278.814941 184.244888,278.892853 184.127197,279.220978 
	C183.123672,281.596497 182.826675,283.302826 186.005875,282.995575 
	C186.005875,282.995575 186.000000,283.000000 186.010345,283.283691 
	C186.302032,284.034576 186.583389,284.501801 186.864761,284.968994 
	C186.864761,284.968994 187.125092,285.298401 186.970001,285.846130 
	C185.256104,288.184845 182.200729,290.226868 182.450287,291.714447 
	C182.968750,294.804962 185.239731,297.601501 186.925690,300.773529 
	C187.439865,299.838898 188.084808,298.666565 188.731934,297.490051 
	C190.189926,297.635223 191.645706,297.784546 193.101486,297.933838 
	C193.101486,297.933838 193.024582,297.983795 193.085114,298.157013 
	C193.264435,298.613892 193.461777,298.823608 193.737701,298.959320 
	C194.177261,299.735992 194.616821,300.512665 194.744827,301.633301 
	C193.414169,302.190002 192.395050,302.402771 191.381134,302.614471 
	C192.258453,305.270294 192.998123,307.509399 193.840195,310.058533 
	C195.657562,309.316467 197.257187,308.663330 198.856812,308.010162 
	C199.874512,309.422211 200.892227,310.834259 201.842438,312.893036 
	C201.998459,315.190399 202.197998,316.844788 202.455536,318.490112 
	C202.585800,319.322418 203.254913,320.404327 202.939331,320.919250 
	C200.567947,324.788727 203.658310,326.104462 205.953003,327.873352 
	C207.034485,328.707001 208.564438,329.510651 208.922638,330.636139 
	C210.559387,335.778809 213.648087,335.881714 217.670319,333.621674 
	C218.377396,334.359253 219.084457,335.096863 219.325623,335.986816 
	C214.591553,336.050873 214.660217,338.474274 215.576691,341.727234 
	C218.109787,341.048828 221.018021,341.090485 219.475479,337.241638 
	C220.087418,337.311676 220.699341,337.381714 221.731262,337.705658 
M171.517242,252.410507 
	C171.517242,252.410507 171.584091,252.522446 171.517242,252.410507 
z"/>
<path fill="#F9F8F9" opacity="1.000000" stroke="none" 
	d="
M172.757050,197.768036 
	C169.162735,194.757004 168.261429,190.399124 168.000885,185.374313 
	C169.420258,184.546356 170.838776,184.144409 172.613037,183.625885 
	C172.934921,188.137421 172.901093,192.765518 172.757050,197.768036 
z"/>
<path fill="#5F5665" opacity="1.000000" stroke="none" 
	d="
M176.597809,168.999985 
	C175.921356,172.639099 174.859116,176.286682 173.445465,180.034546 
	C170.942169,172.520874 171.391922,170.915970 176.597809,168.999985 
z"/>
<path fill="#F9F8F9" opacity="1.000000" stroke="none" 
	d="
M213.172699,359.317017 
	C213.421570,358.478882 213.854477,357.912964 214.287384,357.347015 
	C215.189743,358.311035 216.092117,359.275085 217.005386,360.595154 
	C215.796417,360.497223 214.576553,360.043243 213.172699,359.317017 
z"/>
<path fill="#F9F8F9" opacity="1.000000" stroke="none" 
	d="
M204.046112,354.752441 
	C204.851089,354.815887 205.891251,355.056580 206.966934,355.644745 
	C206.095383,355.638092 205.188339,355.283905 204.046112,354.752441 
z"/>
<path fill="#F9F8F9" opacity="1.000000" stroke="none" 
	d="
M226.732178,365.462524 
	C227.541931,364.729675 228.540314,364.238922 229.538696,363.748230 
	C229.442215,364.440399 229.345718,365.132599 228.957825,366.004883 
	C228.084564,366.024902 227.502686,365.864777 226.732178,365.462524 
z"/>
<path fill="#F9F8F9" opacity="1.000000" stroke="none" 
	d="
M160.227020,187.085022 
	C160.264542,187.831299 160.129486,188.585739 159.994415,189.340195 
	C159.720428,188.888260 159.446442,188.436310 159.272003,187.589813 
	C159.595581,187.137207 159.823212,187.103180 160.227020,187.085022 
z"/>
<path fill="#F9F8F9" opacity="1.000000" stroke="none" 
	d="
M151.680023,189.787872 
	C151.409912,190.272278 150.840118,190.807571 150.098007,191.081207 
	C150.410583,190.492615 150.895462,190.165680 151.680023,189.787872 
z"/>
<path fill="#F9F8F9" opacity="1.000000" stroke="none" 
	d="
M222.106262,363.393738 
	C222.605286,363.261719 223.265808,363.378387 223.941681,363.805237 
	C223.393936,363.957733 222.830841,363.800079 222.106262,363.393738 
z"/>
<path fill="#776394" opacity="1.000000" stroke="none" 
	d="
M465.352173,302.962585 
	C465.016235,302.262909 465.010925,301.505707 465.010742,300.369995 
	C465.238190,300.962677 465.460510,301.933899 465.352173,302.962585 
z"/>
<path fill="#F9F8F9" opacity="1.000000" stroke="none" 
	d="
M193.052017,297.578308 
	C191.645706,297.784546 190.189926,297.635223 188.731934,297.490051 
	C188.084808,298.666565 187.439865,299.838898 186.925690,300.773529 
	C185.239731,297.601501 182.968750,294.804962 182.450287,291.714447 
	C182.200729,290.226868 185.256104,288.184845 186.988159,286.055298 
	C189.108459,289.552032 191.055511,293.387421 193.052017,297.578308 
z"/>
<path fill="#F9F8F9" opacity="1.000000" stroke="none" 
	d="
M176.236847,250.556778 
	C175.051056,250.356506 173.866379,249.729263 172.340851,249.051010 
	C171.999069,241.736938 171.998138,234.473862 172.349548,227.102448 
	C173.880600,234.705994 175.059280,242.417892 176.236847,250.556778 
z"/>
<path fill="#F9F8F9" opacity="1.000000" stroke="none" 
	d="
M184.228012,278.436920 
	C183.094498,277.762848 181.938248,276.710724 180.549576,275.447113 
	C179.952423,275.921783 179.103973,276.596191 178.253433,277.267151 
	C175.862305,275.966278 176.693787,269.552979 179.931671,267.038635 
	C181.605896,270.609802 182.905579,274.334351 184.228012,278.436920 
z"/>
<path fill="#F9F8F9" opacity="1.000000" stroke="none" 
	d="
M198.816238,307.709717 
	C197.257187,308.663330 195.657562,309.316467 193.840195,310.058533 
	C192.998123,307.509399 192.258453,305.270294 191.381134,302.614471 
	C192.395050,302.402771 193.414169,302.190002 194.824295,301.961151 
	C195.889481,302.921631 196.563644,303.898193 197.479156,305.056702 
	C198.072235,305.962158 198.423950,306.685730 198.816238,307.709717 
z"/>
<path fill="#F9F8F9" opacity="1.000000" stroke="none" 
	d="
M179.811554,264.628326 
	C175.770111,262.800385 176.332108,259.223816 177.037262,255.225281 
	C177.982697,257.975098 178.898972,261.112946 179.811554,264.628326 
z"/>
<path fill="#F9F8F9" opacity="1.000000" stroke="none" 
	d="
M185.983124,282.660370 
	C182.826675,283.302826 183.123672,281.596497 184.100601,279.192383 
	C184.781250,279.998810 185.370804,281.161987 185.983124,282.660370 
z"/>
<path fill="#F9F8F9" opacity="1.000000" stroke="none" 
	d="
M172.583313,223.745544 
	C172.231842,223.403152 171.967270,222.792664 171.944061,222.054352 
	C172.347015,222.443512 172.508621,222.960480 172.583313,223.745544 
z"/>
<path fill="#F9F8F9" opacity="1.000000" stroke="none" 
	d="
M186.881897,284.681763 
	C186.583389,284.501801 186.302032,284.034576 186.012848,283.280762 
	C186.303024,283.460938 186.601028,283.927765 186.881897,284.681763 
z"/>
<path fill="#F9F8F9" opacity="1.000000" stroke="none" 
	d="
M176.808716,252.668365 
	C176.585953,252.645615 176.381119,252.321106 176.176392,251.698212 
	C176.393204,251.722092 176.609924,252.044357 176.808716,252.668365 
z"/>
<path fill="#F9F8F9" opacity="1.000000" stroke="none" 
	d="
M193.719513,298.732025 
	C193.461777,298.823608 193.264435,298.613892 193.101013,298.114014 
	C193.373383,297.991699 193.588379,298.194031 193.719513,298.732025 
z"/>
<path fill="#7A6493" opacity="1.000000" stroke="none" 
	d="
M243.250153,356.976440 
	C243.724518,356.952271 244.338531,357.196716 244.977371,357.717163 
	C244.464737,357.743805 243.927261,357.494415 243.250153,356.976440 
z"/>
<path fill="#76539F" opacity="1.000000" stroke="none" 
	d="
M240.054718,354.218811 
	C240.097427,354.022736 240.275070,354.024689 240.718964,354.029053 
	C240.985229,354.031494 240.998230,354.445221 241.014008,354.651215 
	C240.708557,354.789001 240.428513,354.642212 240.054718,354.218811 
z"/>
<path fill="#F9F8F9" opacity="1.000000" stroke="none" 
	d="
M217.520691,333.309143 
	C213.648087,335.881714 210.559387,335.778809 208.922638,330.636139 
	C208.564438,329.510651 207.034485,328.707001 205.953003,327.873352 
	C203.658310,326.104462 200.567947,324.788727 202.939331,320.919250 
	C203.254913,320.404327 202.585800,319.322418 202.455536,318.490112 
	C202.197998,316.844788 201.998459,315.190399 201.921051,313.209900 
	C204.771011,316.473755 207.474854,320.067535 210.452820,323.839539 
	C212.941635,327.010712 215.156357,330.003632 217.520691,333.309143 
z"/>
<path fill="#F9F8F9" opacity="1.000000" stroke="none" 
	d="
M219.384796,337.241516 
	C221.018021,341.090485 218.109787,341.048828 215.576691,341.727234 
	C214.660217,338.474274 214.591553,336.050873 219.308609,336.243286 
	C219.603043,336.645386 219.448593,336.943390 219.384796,337.241516 
z"/>
<path fill="#F9F8F9" opacity="1.000000" stroke="none" 
	d="
M229.195557,345.635193 
	C226.814850,346.171448 224.554138,346.074890 225.097748,342.091614 
	C226.443481,342.881073 227.750565,344.102753 229.195557,345.635193 
z"/>
<path fill="#F9F8F9" opacity="1.000000" stroke="none" 
	d="
M171.550659,252.466476 
	C171.584091,252.522446 171.517242,252.410507 171.550659,252.466476 
z"/>
<path fill="#F9F8F9" opacity="1.000000" stroke="none" 
	d="
M171.860992,249.053894 
	C171.907318,249.035934 171.814636,249.071884 171.860992,249.053894 
z"/>
</svg>